<?xml version="1.0" encoding="UTF-8" standalone="no"?>
<!-- Generator: Adobe Illustrator 19.0.0, SVG Export Plug-In . SVG Version: 6.00 Build 0)  -->

<svg
   xmlns:dc="http://purl.org/dc/elements/1.1/"
   xmlns:cc="http://creativecommons.org/ns#"
   xmlns:rdf="http://www.w3.org/1999/02/22-rdf-syntax-ns#"
   xmlns:svg="http://www.w3.org/2000/svg"
   xmlns="http://www.w3.org/2000/svg"
   xmlns:sodipodi="http://sodipodi.sourceforge.net/DTD/sodipodi-0.dtd"
   xmlns:inkscape="http://www.inkscape.org/namespaces/inkscape"
   version="1.1"
   id="Layer_1"
   x="0px"
   y="0px"
   viewBox="0 0 511.996 511.996"
   style="enable-background:new 0 0 511.996 511.996;"
   xml:space="preserve"
   sodipodi:docname="builder.svg"
   inkscape:version="0.92.1 15371"><metadata
     id="metadata3850"><rdf:RDF><cc:Work
         rdf:about=""><dc:format>image/svg+xml</dc:format><dc:type
           rdf:resource="http://purl.org/dc/dcmitype/StillImage" /></cc:Work></rdf:RDF></metadata><defs
     id="defs3848" /><sodipodi:namedview
     pagecolor="#ffffff"
     bordercolor="#666666"
     borderopacity="1"
     objecttolerance="10"
     gridtolerance="10"
     guidetolerance="10"
     inkscape:pageopacity="0"
     inkscape:pageshadow="2"
     inkscape:window-width="1920"
     inkscape:window-height="1056"
     id="namedview3846"
     showgrid="false"
     inkscape:zoom="1.7695451"
     inkscape:cx="162.18858"
     inkscape:cy="255.998"
     inkscape:window-x="1366"
     inkscape:window-y="24"
     inkscape:window-maximized="1"
     inkscape:current-layer="Layer_1" /><path
     style="fill:#F5F7FA;"
     d="M274.992,373.497l-17,2.5l-12.664-1.5c0,0-59.335-28.499-60.835-29.499s-15.5-8-18-8.5  s0,26.499,0,26.499l24,66.999l14-8l46-27.499l21.5,6l48,23.515l27.344-53.515v-43.999L274.992,373.497z"
     id="path3793" /><path
     style="fill:#FC6E51;"
     d="M363.335,271.998l-33.671,9l-41.328-17l-16-10l-13.672,7l-18-8.672l-14.336,6.344l-25.664,13.656  l-16.671,9.672l-23.328-7l-23-6.672v18.672l17,15.328l30.328,9.344l32.671-2.672l24.664-12l18.336-5l18.672,14.328l50.656,5.344  l37.999-20.344c0,0,5-14.656,5-15.656S363.335,271.998,363.335,271.998z"
     id="path3795" /><path
     style="fill:#E9573F;"
     d="M261.656,297.67h-7.664l-19.164,2.984l-24.835,14.016c0,0-36,0-37-0.656s0,6.328,0,6.328  l5.336,19.672l30,28.655l30.328,18l25,1.344l58.68-34.672l25-41.671L261.656,297.67z"
     id="path3797" /><polygon
     style="fill:#EAC6BB;"
     points="133.993,186.67 137.665,213.342 137.665,243.342 148.657,266.014 167.329,281.998   199.329,267.342 227.992,255.998 262.656,255.998 293.992,262.014 337.852,278.81 372.991,255.998 381.991,238.67 381.991,180.67   "
     id="polygon3799" /><path
     style="fill:#0079db;fill-opacity:1"
     d="M481.49,429.996c-1-3-26.5-13.999-26.5-13.999l-99.999-42l-27.499,61.905l-20.5-9.234l-114,10.672  l-32-69.843l-34.5,25l-59,20.5l-40.5,26.499l-3.5,64.828h464.496l4.5-32.828C492.49,471.496,482.49,432.996,481.49,429.996z"
     id="path3801" /><polygon
     style="fill:#E6E9ED;"
     points="286.336,415.997 255.328,399.669 218.329,421.324 222.664,504.324 289.992,494.668 "
     id="polygon3803" /><polygon
     style="fill:#FFCE54;"
     points="392.991,144.499 348.742,71.999 302.492,43.999 292.242,21.25 240.742,11.75 208.993,23.5   192.993,48.249 144.493,92.999 124.743,145.249 117.493,179.498 401.491,182.498 "
     id="polygon3805" /><g
     id="g3813"><path
       style="fill:#080808;"
       d="M460.21,407.685l-1.812-0.516c-26.469-7.109-35.422-13.938-47.218-18.422   c-28.031-10.688-42.156-19.375-49.25-25.562l-6.031-44.937c1.844-2.5,3.656-5.078,5.438-7.688   c25.688-12.594,29.203-32.312,24.094-48.656c5.156-15.656,8.125-32.062,8.125-48.703c0-7.281-0.422-14.344-1.219-21.203h13h10.656   c5.89,0,10.655-4.781,10.655-10.656c0-5.906-4.766-10.688-10.655-10.688h-10.656c0-63.671-39.875-118.03-95.999-139.499v-9.812   c0-4.062-2.312-7.766-5.938-9.562C302.431,11.297,279.415,0,255.993,0s-46.445,11.297-47.414,11.781   c-3.625,1.812-5.922,5.5-5.922,9.562l0.008,9.812c-56.132,21.468-96.007,75.827-96.007,139.499H95.993   c-5.89,0-10.664,4.781-10.664,10.688c0,5.875,4.773,10.656,10.664,10.656h10.664h12.992c-0.797,6.859-1.211,13.922-1.211,21.203   c0,16.64,2.961,33.046,8.109,48.703c-5.102,16.344-1.586,36.078,24.109,48.656c1.766,2.609,3.578,5.188,5.438,7.688l-6.023,44.937   c-7.102,6.188-21.219,14.875-49.273,25.562c-11.789,4.484-20.742,11.312-47.21,18.422l-1.812,0.516   c-24.093,7.969-40.304,30.312-40.304,55.53v48.781H213.33h42.664h42.656h201.873v-48.781   C500.521,437.996,484.303,415.653,460.21,407.685z M156.727,285.467c7.14,3.844,14.687,5.812,22.445,5.812   c18.383,0,32.945-10.812,44.656-19.5c3.875-2.875,7.539-5.578,10.742-7.469c1.828-1.094,3.023-1.625,3.727-1.875   c0.531,0.438,1.359,1.25,2.461,2.625c5.953,7.438,4.984,12.125,3.25,15.734c-4.672,9.703-21.312,20.188-40.062,20.188   c-1.406,0-2.812-0.078-4.172-0.188c-24.781-2.281-37.805-7.766-44.359-11.984c-7.258-4.656-8.734-9-9.172-11   C149.087,280.686,152.602,283.248,156.727,285.467z M365.741,277.81c-0.438,2-1.922,6.344-9.172,11   c-6.546,4.219-19.577,9.703-44.358,11.984c-1.359,0.109-2.766,0.188-4.172,0.188c-18.75,0-35.391-10.484-40.062-20.188   c-1.734-3.609-2.703-8.297,3.25-15.734c1.109-1.375,1.938-2.188,2.453-2.625c0.719,0.25,1.906,0.781,3.734,1.875   c3.203,1.891,6.859,4.594,10.734,7.469c11.719,8.688,26.281,19.5,44.656,19.5c7.766,0,15.312-1.969,22.452-5.812   C359.382,283.248,362.897,280.686,365.741,277.81z M308.039,322.31c2.047,0,4.094-0.094,6.125-0.281   c5.203-0.469,10.078-1.094,14.641-1.844c0.25,1.406,0.328,2.406,0.328,3.047c-0.078,1.141-1.547,5.609-7.422,12.953   c-5.562,6.938-13.547,14.656-23.094,22.28c-8.75,7.016-18.484,13.656-27.391,18.719c-7.836,4.438-12.898,6.438-15.234,7.156   c-2.336-0.719-7.398-2.719-15.234-7.156c-8.906-5.062-18.64-11.703-27.398-18.719c-9.539-7.624-17.516-15.343-23.078-22.28   c-5.875-7.344-7.352-11.812-7.43-12.953c0-0.641,0.07-1.641,0.32-3.047c4.562,0.75,9.438,1.375,14.648,1.844   c2.039,0.188,4.078,0.281,6.125,0.281c19.977,0,40.156-8.688,52.046-21.719C267.883,313.623,288.07,322.31,308.039,322.31z    M171.164,366.341l2.289-17.046c14.023,17.624,37.805,35.702,56.968,46.546l-34.179,24.624L171.164,366.341z M234.656,490.652   V419.09l18.68-13.452c0.969,0.172,1.867,0.281,2.656,0.297c0.789-0.016,1.688-0.125,2.656-0.297l18.688,13.452v71.562H234.656z    M281.555,395.841c19.172-10.844,42.953-28.922,56.969-46.546l2.297,17.046l-25.078,54.124L281.555,395.841z M355.6,385.169   c13.641,9.484,31.328,17.094,46.047,22.766l-24.969,24.968l-29.53-29.499L355.6,385.169z M165.485,80.156   C176.43,69.218,189.008,60.5,202.673,54.25l0.008,41.796c0.008,5.891,4.781,10.672,10.672,10.672l0,0   c5.891-0.016,10.664-4.781,10.664-10.688l-0.023-67.718c7.82-3.062,20.453-6.969,32-6.969c12.172,0,24.812,4.156,32,7v66.312   c0,5.906,4.781,10.687,10.656,10.687c5.906,0,10.688-4.781,10.688-10.687V54.249c13.656,6.25,26.219,14.969,37.156,25.906   c24.187,24.187,37.499,56.312,37.499,90.499h-256C127.993,136.468,141.306,104.343,165.485,80.156z M370.835,191.998   c0.906,6.875,1.375,13.938,1.375,21.203c0,8.203-0.875,16.578-2.562,25.015c-3.781-2.969-7.594-4.688-10.844-4.688   c-0.094,0-0.188,0-0.281,0c-16.562,0.5-24.53,17.688-24.53,17.688c2.469-0.75,4.891-1.094,7.141-1.094   c11.437,0,18.421,8.781,3.984,16.562c-4.219,2.281-8.312,3.25-12.312,3.25c-21.906,0-40.641-29.047-59.719-29.047   c-5.633-0.016-11.305,2.547-17.094,9.141c-5.789-6.594-11.461-9.141-17.102-9.141c-19.07,0-37.804,29.047-59.718,29.047   c-3.992,0-8.086-0.969-12.312-3.25c-14.414-7.781-7.445-16.562,3.992-16.562c2.25,0,4.68,0.344,7.148,1.094   c0,0-7.969-17.188-24.546-17.688c-0.086,0-0.18,0-0.273,0c-3.25,0-7.062,1.719-10.836,4.688c-1.695-8.438-2.57-16.812-2.57-25.015   c0-7.266,0.469-14.328,1.375-21.203H370.835z M156.384,385.169l8.445,18.234l-29.515,29.499l-24.977-24.968   C125.056,402.263,142.751,394.653,156.384,385.169z M32.798,490.652v-9.406l9.422,9.406H32.798z M72.384,490.652l-38.031-38.031   c3.391-11.312,12.094-20.578,23.773-24.562l1.195-0.344c13.43-3.625,22.805-7.188,30.203-10.438l30.703,30.719l-42.664,42.656   H72.384z M107.727,490.652l27.586-27.562l27.585,27.562H107.727z M198.243,490.652h-5.18l-42.664-42.656l23.976-23.984   l7.938,17.141c1.336,2.875,3.898,5.031,6.977,5.828c0.891,0.234,1.797,0.359,2.703,0.359c2.211,0,4.398-0.703,6.234-2.031   l15.102-10.875v41.141L198.243,490.652z M313.742,490.652l-15.094-15.078v-41.141l15.109,10.875   c1.828,1.328,4.016,2.031,6.234,2.031c0.906,0,1.812-0.125,2.703-0.359c3.078-0.797,5.641-2.953,6.984-5.828l7.938-17.125   l23.968,23.969l-42.655,42.656H313.742z M349.086,490.652l27.593-27.562l27.562,27.562H349.086z M434.428,490.652l-42.671-42.656   l30.702-30.719c7.406,3.25,16.781,6.812,30.203,10.438l1.203,0.344c11.672,3.984,20.375,13.25,23.766,24.562L439.6,490.652H434.428   z M479.178,490.652h-9.406l9.406-9.406V490.652z"
       id="path3807" /><path
       style="fill:#080808;"
       d="M248.453,461.777c-4.172,4.172-4.172,10.938,0,15.094c4.164,4.156,10.914,4.156,15.086,0   c4.164-4.156,4.164-10.922,0-15.094C259.367,457.621,252.617,457.621,248.453,461.777z"
       id="path3809" /><path
       style="fill:#080808;"
       d="M248.453,419.121c-4.172,4.156-4.172,10.906,0,15.094c4.164,4.156,10.914,4.156,15.086,0   c4.164-4.188,4.164-10.938,0-15.094C259.367,414.966,252.617,414.966,248.453,419.121z"
       id="path3811" /></g><g
     id="g3815" /><g
     id="g3817" /><g
     id="g3819" /><g
     id="g3821" /><g
     id="g3823" /><g
     id="g3825" /><g
     id="g3827" /><g
     id="g3829" /><g
     id="g3831" /><g
     id="g3833" /><g
     id="g3835" /><g
     id="g3837" /><g
     id="g3839" /><g
     id="g3841" /><g
     id="g3843" /></svg>